<?xml version="1.0" encoding="UTF-8"?>
<svg id="Layer_1" data-name="Layer 1" xmlns="http://www.w3.org/2000/svg" xmlns:xlink="http://www.w3.org/1999/xlink" viewBox="0 0 990 285.07">
  <defs>
    <style>
      .cls-1 {
        fill: url(#Gradiente_sem_nome_57-3);
      }

      .cls-1, .cls-2, .cls-3, .cls-4, .cls-5, .cls-6, .cls-7, .cls-8 {
        stroke-width: 0px;
      }

      .cls-2 {
        fill: url(#Gradiente_sem_nome_57-4);
      }

      .cls-3 {
        fill: url(#Gradiente_sem_nome_57-5);
      }

      .cls-4 {
        fill: none;
      }

      .cls-5 {
        fill: url(#Gradiente_sem_nome_57);
      }

      .cls-6 {
        fill: url(#Gradiente_sem_nome_57-6);
      }

      .cls-7 {
        fill: url(#Gradiente_sem_nome_57-2);
      }

      .cls-8 {
        fill: #fff;
      }
    </style>
    <linearGradient id="Gradiente_sem_nome_57" data-name="Gradiente sem nome 57" x1="439.41" y1="126.81" x2="924.05" y2="126.81" gradientUnits="userSpaceOnUse">
      <stop offset="0" stop-color="#00de80"/>
      <stop offset=".51" stop-color="#ec4899"/>
      <stop offset="1" stop-color="#a855f7"/>
    </linearGradient>
    <linearGradient id="Gradiente_sem_nome_57-2" data-name="Gradiente sem nome 57" y1="138.31" y2="138.31" xlink:href="#Gradiente_sem_nome_57"/>
    <linearGradient id="Gradiente_sem_nome_57-3" data-name="Gradiente sem nome 57" y1="159.3" y2="159.3" xlink:href="#Gradiente_sem_nome_57"/>
    <linearGradient id="Gradiente_sem_nome_57-4" data-name="Gradiente sem nome 57" y1="71.01" y2="71.01" xlink:href="#Gradiente_sem_nome_57"/>
    <linearGradient id="Gradiente_sem_nome_57-5" data-name="Gradiente sem nome 57" y1="138.31" y2="138.31" xlink:href="#Gradiente_sem_nome_57"/>
    <linearGradient id="Gradiente_sem_nome_57-6" data-name="Gradiente sem nome 57" x1="439.41" y1="138.31" x2="924.05" y2="138.31" xlink:href="#Gradiente_sem_nome_57"/>
  </defs>
  <path class="cls-8" d="M77.15,97.35c5.05-8.62,11.92-15.35,20.6-20.2,8.67-4.84,18.17-7.26,28.5-7.26,11.82,0,22.33,2.9,31.53,8.7,9.21,5.8,15.89,14.03,20.04,24.67h-21.87c-2.87-5.85-6.87-10.22-11.98-13.09-5.11-2.87-11.02-4.31-17.72-4.31-7.34,0-13.89,1.65-19.64,4.95-5.75,3.3-10.25,8.04-13.49,14.21-3.25,6.17-4.87,13.36-4.87,21.56s1.62,15.38,4.87,21.56c3.25,6.17,7.74,10.94,13.49,14.29,5.75,3.35,12.29,5.03,19.64,5.03,6.71,0,12.61-1.44,17.72-4.31,5.11-2.87,9.1-7.24,11.98-13.09h21.87c-4.15,10.65-10.83,18.84-20.04,24.59-9.21,5.75-19.72,8.62-31.53,8.62-10.43,0-19.96-2.42-28.58-7.26-8.62-4.84-15.46-11.58-20.52-20.2-5.06-8.62-7.58-18.36-7.58-29.22s2.53-20.6,7.58-29.22Z"/>
  <path class="cls-8" d="M200.02,79.31c-2.24-2.24-3.35-5-3.35-8.3s1.12-6.07,3.35-8.3,5-3.35,8.3-3.35,5.91,1.12,8.14,3.35c2.24,2.24,3.35,5,3.35,8.3s-1.12,6.07-3.35,8.3c-2.24,2.24-4.95,3.35-8.14,3.35s-6.07-1.12-8.3-3.35ZM217.26,94.32v87.98h-18.2v-87.98h18.2Z"/>
  <path class="cls-8" d="M304.2,97.19c5.48,2.87,9.76,7.13,12.85,12.77,3.09,5.64,4.63,12.45,4.63,20.44v51.89h-18.04v-49.18c0-7.88-1.97-13.92-5.91-18.12-3.94-4.2-9.32-6.31-16.13-6.31s-12.21,2.1-16.21,6.31c-3.99,4.21-5.99,10.25-5.99,18.12v49.18h-18.2v-87.98h18.2v10.06c2.98-3.62,6.79-6.44,11.42-8.46,4.63-2.02,9.55-3.03,14.77-3.03,6.92,0,13.12,1.44,18.6,4.31Z"/>
  <path class="cls-8" d="M424.83,145.09h-67.22c.53,7.03,3.14,12.67,7.82,16.92,4.68,4.26,10.43,6.39,17.24,6.39,9.79,0,16.71-4.1,20.76-12.29h19.64c-2.66,8.09-7.48,14.72-14.45,19.88-6.97,5.16-15.62,7.74-25.95,7.74-8.41,0-15.94-1.89-22.59-5.67-6.65-3.78-11.87-9.1-15.65-15.97-3.78-6.87-5.67-14.82-5.67-23.87s1.84-17,5.51-23.87c3.67-6.87,8.83-12.16,15.49-15.89,6.65-3.72,14.29-5.59,22.91-5.59s15.7,1.81,22.19,5.43c6.49,3.62,11.55,8.7,15.17,15.25,3.62,6.55,5.43,14.08,5.43,22.59,0,3.3-.21,6.28-.64,8.94ZM406.46,130.4c-.11-6.71-2.5-12.08-7.19-16.13-4.69-4.04-10.49-6.07-17.4-6.07-6.28,0-11.66,2-16.13,5.99-4.47,3.99-7.13,9.4-7.98,16.21h48.7Z"/>
  <polygon class="cls-5" points="501.95 158.34 462.99 71.33 443.35 71.33 443.35 182.29 461.55 182.29 461.55 106.29 495.56 182.29 508.17 182.29 542.02 106.29 542.02 182.29 560.22 182.29 560.22 71.33 540.74 71.33 501.95 158.34"/>
  <g>
    <path class="cls-4" d="M636.54,112.2c-4.05-2.34-8.41-3.51-13.09-3.51s-9.05,1.14-13.09,3.43c-4.05,2.29-7.32,5.64-9.82,10.06-2.5,4.42-3.75,9.66-3.75,15.73s1.25,11.39,3.75,15.97c2.5,4.58,5.8,8.06,9.9,10.46,4.1,2.4,8.43,3.59,13.01,3.59s9.05-1.17,13.09-3.51c4.04-2.34,7.32-5.77,9.82-10.3,2.5-4.52,3.75-9.82,3.75-15.89s-1.25-11.34-3.75-15.81c-2.5-4.47-5.78-7.88-9.82-10.22Z"/>
    <path class="cls-7" d="M650.12,107.09c-3.09-4.04-7.21-7.42-12.38-10.14-5.16-2.71-11.2-4.07-18.12-4.07-7.66,0-14.67,1.89-21,5.67-6.33,3.78-11.34,9.08-15.01,15.89-3.67,6.81-5.51,14.64-5.51,23.47s1.84,16.74,5.51,23.71c3.67,6.97,8.65,12.4,14.93,16.29,6.28,3.89,13.2,5.83,20.76,5.83,6.81,0,12.88-1.38,18.2-4.15,5.32-2.77,9.53-6.23,12.61-10.38v13.09h18.36v-87.98h-18.36v12.77ZM646.36,154.11c-2.5,4.53-5.78,7.96-9.82,10.3-4.05,2.34-8.41,3.51-13.09,3.51s-8.92-1.2-13.01-3.59c-4.1-2.39-7.4-5.88-9.9-10.46-2.5-4.58-3.75-9.9-3.75-15.97s1.25-11.31,3.75-15.73c2.5-4.42,5.77-7.77,9.82-10.06,4.04-2.29,8.41-3.43,13.09-3.43s9.05,1.17,13.09,3.51c4.04,2.34,7.32,5.75,9.82,10.22,2.5,4.47,3.75,9.74,3.75,15.81s-1.25,11.36-3.75,15.89Z"/>
  </g>
  <g>
    <path class="cls-4" d="M744.8,112.2c-4.05-2.34-8.41-3.51-13.09-3.51s-9.05,1.14-13.09,3.43c-4.05,2.29-7.32,5.64-9.82,10.06-2.5,4.42-3.75,9.66-3.75,15.73s1.25,11.39,3.75,15.97c2.5,4.58,5.8,8.06,9.9,10.46,4.1,2.4,8.43,3.59,13.01,3.59s9.05-1.17,13.09-3.51c4.04-2.34,7.32-5.77,9.82-10.3,2.5-4.52,3.75-9.82,3.75-15.89s-1.25-11.34-3.75-15.81c-2.5-4.47-5.78-7.88-9.82-10.22Z"/>
    <path class="cls-1" d="M758.37,107.09c-2.98-4.04-7.11-7.42-12.38-10.14-5.27-2.71-11.31-4.07-18.12-4.07-7.66,0-14.67,1.89-21,5.67-6.33,3.78-11.34,9.08-15.01,15.89-3.67,6.81-5.51,14.64-5.51,23.47s1.84,16.74,5.51,23.71c3.67,6.97,8.67,12.4,15.01,16.29,6.33,3.89,13.33,5.83,21,5.83,6.71,0,12.69-1.41,17.96-4.23,5.27-2.82,9.45-6.31,12.53-10.46v14.69c0,8.51-2.26,15.01-6.79,19.48-4.53,4.47-10.46,6.71-17.8,6.71-6.28,0-11.68-1.41-16.21-4.23-4.53-2.82-7.48-6.52-8.86-11.1h-18.04c1.06,9.58,5.53,17.16,13.41,22.75,7.88,5.59,17.78,8.38,29.7,8.38,8.94,0,16.63-1.81,23.07-5.43,6.44-3.62,11.36-8.6,14.77-14.93,3.41-6.33,5.11-13.55,5.11-21.63v-89.42h-18.36v12.77ZM754.62,154.11c-2.5,4.53-5.78,7.96-9.82,10.3-4.05,2.34-8.41,3.51-13.09,3.51s-8.92-1.2-13.01-3.59c-4.1-2.39-7.4-5.88-9.9-10.46-2.5-4.58-3.75-9.9-3.75-15.97s1.25-11.31,3.75-15.73c2.5-4.42,5.77-7.77,9.82-10.06,4.04-2.29,8.41-3.43,13.09-3.43s9.05,1.17,13.09,3.51c4.04,2.34,7.32,5.75,9.82,10.22,2.5,4.47,3.75,9.74,3.75,15.81s-1.25,11.36-3.75,15.89Z"/>
  </g>
  <g>
    <path class="cls-2" d="M809.94,59.35c-3.3,0-6.07,1.12-8.3,3.35s-3.35,5-3.35,8.3,1.12,6.07,3.35,8.3,5,3.35,8.3,3.35,5.91-1.12,8.14-3.35,3.35-5,3.35-8.3-1.12-6.07-3.35-8.3-4.95-3.35-8.14-3.35Z"/>
    <rect class="cls-3" x="800.68" y="94.32" width="18.2" height="87.98"/>
  </g>
  <path class="cls-6" d="M879.88,108.21c5.32,0,9.74,1.23,13.25,3.67,3.51,2.45,6.07,5.86,7.66,10.22h19.64c-2.45-9.37-7.16-16.58-14.13-21.63-6.97-5.05-15.78-7.58-26.42-7.58-8.41,0-15.86,1.86-22.35,5.59-6.49,3.73-11.58,9.02-15.25,15.89-3.67,6.87-5.51,14.82-5.51,23.87s1.84,17,5.51,23.87c3.67,6.87,8.75,12.19,15.25,15.97,6.49,3.78,13.94,5.67,22.35,5.67,10.43,0,19.16-2.63,26.19-7.9,7.03-5.27,11.82-12.37,14.37-21.32h-19.64c-3.41,9.26-10.38,13.89-20.92,13.89-7.45,0-13.39-2.66-17.8-7.98-4.42-5.32-6.63-12.72-6.63-22.19s2.21-16.85,6.63-22.11c4.42-5.27,10.35-7.9,17.8-7.9Z"/>
</svg>